<svg width="1000" height="278" viewBox="0 0 1000 278" fill="none" xmlns="http://www.w3.org/2000/svg">
<g clip-path="url(#clip0)">
<rect width="1000" height="277.597" fill="#090303"/>
<rect x="350" y="54" width="300" height="66.6667" fill="#730909"/>
<g filter="url(#filter0_d)">
<rect x="352" y="56" width="296" height="63" fill="white"/>
</g>
<path d="M96 1H999V175" stroke="white" stroke-width="5" stroke-linecap="round"/>
<path d="M740 276H2.00001V56" stroke="white" stroke-width="5" stroke-linecap="round"/>
<path d="M235.632 163.362C235.632 155.452 237.561 149.007 241.418 144.026C245.325 138.997 250.671 136.482 257.458 136.482C264.197 136.482 269.519 138.997 273.425 144.026C277.332 149.007 279.285 155.452 279.285 163.362C279.285 171.321 277.332 177.815 273.425 182.845C269.519 187.874 264.197 190.389 257.458 190.389C250.671 190.389 245.325 187.874 241.418 182.845C237.561 177.815 235.632 171.321 235.632 163.362ZM242.297 163.362C242.297 170.345 243.689 175.765 246.472 179.622C249.255 183.431 252.917 185.335 257.458 185.335C261.951 185.335 265.588 183.431 268.372 179.622C271.204 175.765 272.62 170.345 272.62 163.362C272.62 156.429 271.204 151.033 268.372 147.176C265.588 143.318 261.951 141.39 257.458 141.39C252.917 141.39 249.255 143.318 246.472 147.176C243.689 151.033 242.297 156.429 242.297 163.362ZM324.329 141.976H319.788C317.59 141.976 316.492 142.903 316.492 144.759V189.949H310.12V145.491C310.12 143.978 309.949 142.903 309.607 142.269C309.314 141.634 308.85 141.243 308.215 141.097C307.336 140.853 306.677 140.584 306.238 140.291C305.847 139.998 305.652 139.583 305.652 139.046C305.652 137.972 306.335 137.435 307.703 137.435H324.182C329.504 137.435 333.679 138.729 336.707 141.316C339.734 143.904 341.248 147.396 341.248 151.79C341.248 156.575 339.807 160.286 336.926 162.923C334.045 165.511 330.53 166.902 326.379 167.098L341.321 189.949H333.63L318.616 166.585C317.834 165.56 317.639 164.632 318.03 163.802C318.42 162.972 319.177 162.557 320.3 162.557H323.157C326.477 162.557 329.211 161.629 331.36 159.773C333.557 157.918 334.656 155.257 334.656 151.79C334.705 148.763 333.679 146.37 331.58 144.612C329.48 142.854 327.063 141.976 324.329 141.976ZM377.576 189.949H371.204V145.564C371.204 144.1 371.057 143.05 370.764 142.415C370.471 141.731 369.983 141.316 369.299 141.17C368.42 140.975 367.664 140.779 367.029 140.584C366.443 140.34 366.15 139.876 366.15 139.192C366.15 138.069 366.882 137.508 368.347 137.508H375.159C376.77 137.508 377.576 138.289 377.576 139.852V159.554L395.007 137.508H399.036C399.768 137.508 400.256 137.801 400.5 138.387C400.745 138.924 400.598 139.461 400.061 139.998L382.922 161.312L404.456 189.949H396.838L377.576 163.948V189.949ZM437.634 189.949H431.262V145.491C431.262 144.026 431.116 142.977 430.823 142.342C430.53 141.658 430.042 141.243 429.358 141.097C428.479 140.901 427.722 140.682 427.087 140.438C426.501 140.193 426.208 139.754 426.208 139.119C426.208 137.996 426.941 137.435 428.406 137.435H435.217C436.829 137.435 437.634 138.216 437.634 139.778V189.949ZM567.712 189.949H561.34V145.564C561.34 144.1 561.194 143.05 560.901 142.415C560.608 141.731 560.12 141.316 559.436 141.17C558.557 140.975 557.8 140.779 557.166 140.584C556.58 140.34 556.287 139.876 556.287 139.192C556.287 138.069 557.019 137.508 558.484 137.508H565.295C566.907 137.508 567.712 138.289 567.712 139.852V159.554L585.144 137.508H589.172C589.905 137.508 590.393 137.801 590.637 138.387C590.881 138.924 590.735 139.461 590.198 139.998L573.059 161.312L594.592 189.949H586.975L567.712 163.948V189.949ZM627.771 189.949H621.399V145.491C621.399 144.026 621.252 142.977 620.959 142.342C620.667 141.658 620.178 141.243 619.495 141.097C618.616 140.901 617.859 140.682 617.224 140.438C616.638 140.193 616.345 139.754 616.345 139.119C616.345 137.996 617.078 137.435 618.542 137.435H625.354C626.965 137.435 627.771 138.216 627.771 139.778V189.949ZM669.519 137.435L688.928 177.645V137.435H694.934V186.653C694.934 188.851 693.835 189.949 691.638 189.949H688.635L667.468 147.029V189.949H661.829V145.491C661.829 144.026 661.731 143.001 661.536 142.415C661.389 141.78 660.925 141.341 660.144 141.097C659.363 140.853 658.728 140.633 658.24 140.438C657.751 140.193 657.507 139.754 657.507 139.119C657.507 137.996 658.289 137.435 659.851 137.435H669.519Z" fill="white"/>
<path d="M241.418 144.026L239.444 142.493L239.442 142.496L241.418 144.026ZM273.425 144.026L271.451 145.56L271.458 145.569L273.425 144.026ZM241.418 182.845L239.435 184.366L239.439 184.372L239.444 184.378L241.418 182.845ZM246.472 179.622L244.445 181.085L244.449 181.091L244.454 181.097L246.472 179.622ZM268.372 179.622L266.356 178.143L266.353 178.147L268.372 179.622ZM268.372 147.176L266.344 148.639L266.35 148.647L266.356 148.655L268.372 147.176ZM238.132 163.362C238.132 155.862 239.956 149.998 243.395 145.557L239.442 142.496C235.166 148.016 233.132 155.042 233.132 163.362H238.132ZM243.393 145.56C246.791 141.185 251.385 138.982 257.458 138.982V133.982C249.958 133.982 243.859 136.809 239.444 142.493L243.393 145.56ZM257.458 138.982C263.477 138.982 268.049 141.18 271.451 145.56L275.4 142.493C270.989 136.814 264.917 133.982 257.458 133.982V138.982ZM271.458 145.569C274.94 150.009 276.785 155.869 276.785 163.362H281.785C281.785 155.035 279.723 148.005 275.392 142.484L271.458 145.569ZM276.785 163.362C276.785 170.907 274.939 176.82 271.451 181.311L275.4 184.378C279.724 178.81 281.785 171.735 281.785 163.362H276.785ZM271.451 181.311C268.049 185.691 263.477 187.889 257.458 187.889V192.889C264.917 192.889 270.989 190.057 275.4 184.378L271.451 181.311ZM257.458 187.889C251.385 187.889 246.791 185.686 243.393 181.311L239.444 184.378C243.859 190.062 249.958 192.889 257.458 192.889V187.889ZM243.402 181.323C239.957 176.832 238.132 170.914 238.132 163.362H233.132C233.132 171.728 235.165 178.799 239.435 184.366L243.402 181.323ZM239.797 163.362C239.797 170.635 241.241 176.644 244.445 181.085L248.5 178.159C246.137 174.885 244.797 170.054 244.797 163.362H239.797ZM244.454 181.097C247.686 185.52 252.084 187.835 257.458 187.835V182.835C253.751 182.835 250.825 181.341 248.491 178.147L244.454 181.097ZM257.458 187.835C262.794 187.835 267.164 185.512 270.39 181.097L266.353 178.147C264.013 181.349 261.107 182.835 257.458 182.835V187.835ZM270.387 181.102C273.649 176.659 275.12 170.643 275.12 163.362H270.12C270.12 170.047 268.759 174.871 266.356 178.143L270.387 181.102ZM275.12 163.362C275.12 156.126 273.647 150.137 270.387 145.696L266.356 148.655C268.76 151.93 270.12 156.731 270.12 163.362H275.12ZM270.399 145.713C267.178 141.249 262.808 138.89 257.458 138.89V143.89C261.094 143.89 263.998 145.387 266.344 148.639L270.399 145.713ZM257.458 138.89C252.07 138.89 247.672 141.241 244.445 145.713L248.5 148.639C250.839 145.396 253.765 143.89 257.458 143.89V138.89ZM244.445 145.713C241.243 150.151 239.797 156.134 239.797 163.362H244.797C244.797 156.724 246.135 151.915 248.5 148.639L244.445 145.713ZM316.492 189.949V192.449H318.992V189.949H316.492ZM310.12 189.949H307.62V192.449H310.12V189.949ZM309.607 142.269L307.337 143.316L307.369 143.386L307.406 143.454L309.607 142.269ZM308.215 141.097L307.546 143.505L307.599 143.52L307.653 143.533L308.215 141.097ZM306.238 140.291L304.738 142.291L304.793 142.333L304.851 142.371L306.238 140.291ZM336.926 162.923L338.597 164.783L338.606 164.775L338.614 164.767L336.926 162.923ZM326.379 167.098L326.262 164.6L321.894 164.806L324.287 168.466L326.379 167.098ZM341.321 189.949V192.449H345.942L343.413 188.581L341.321 189.949ZM333.63 189.949L331.527 191.301L332.265 192.449H333.63V189.949ZM318.616 166.585L320.719 165.233L320.665 165.149L320.604 165.07L318.616 166.585ZM331.36 159.773L329.747 157.863L329.736 157.872L329.726 157.881L331.36 159.773ZM334.656 151.79L332.156 151.75L332.156 151.77V151.79H334.656ZM324.329 139.476H319.788V144.476H324.329V139.476ZM319.788 139.476C318.397 139.476 316.888 139.76 315.703 140.761C314.436 141.831 313.992 143.324 313.992 144.759H318.992C318.992 144.536 319.025 144.454 319.023 144.459C319.015 144.48 318.983 144.536 318.929 144.581C318.883 144.62 318.89 144.593 319.023 144.556C319.163 144.517 319.406 144.476 319.788 144.476V139.476ZM313.992 144.759V189.949H318.992V144.759H313.992ZM316.492 187.449H310.12V192.449H316.492V187.449ZM312.62 189.949V145.491H307.62V189.949H312.62ZM312.62 145.491C312.62 143.924 312.466 142.304 311.808 141.083L307.406 143.454C307.394 143.432 307.461 143.557 307.523 143.943C307.581 144.311 307.62 144.819 307.62 145.491H312.62ZM311.877 141.221C311.287 139.944 310.227 138.995 308.777 138.661L307.653 143.533C307.639 143.529 307.606 143.52 307.561 143.498C307.516 143.476 307.471 143.447 307.429 143.412C307.34 143.337 307.321 143.281 307.337 143.316L311.877 141.221ZM308.884 138.688C308.104 138.471 307.74 138.288 307.625 138.211L304.851 142.371C305.614 142.88 306.569 143.234 307.546 143.505L308.884 138.688ZM307.738 138.291C307.847 138.373 307.973 138.51 308.06 138.696C308.144 138.873 308.152 139.009 308.152 139.046H303.152C303.152 140.279 303.648 141.474 304.738 142.291L307.738 138.291ZM308.152 139.046C308.152 139.039 308.153 139.148 308.081 139.317C308.003 139.502 307.872 139.675 307.709 139.803C307.558 139.922 307.443 139.953 307.439 139.954C307.439 139.954 307.516 139.935 307.703 139.935V134.935C306.76 134.935 305.591 135.108 304.62 135.872C303.534 136.725 303.152 137.941 303.152 139.046H308.152ZM307.703 139.935H324.182V134.935H307.703V139.935ZM324.182 139.935C329.111 139.935 332.641 141.13 335.082 143.217L338.331 139.416C334.718 136.327 329.898 134.935 324.182 134.935V139.935ZM335.082 143.217C337.492 145.277 338.748 148.041 338.748 151.79H343.748C343.748 146.75 341.976 142.532 338.331 139.416L335.082 143.217ZM338.748 151.79C338.748 156.044 337.488 159.02 335.238 161.079L338.614 164.767C342.126 161.553 343.748 157.106 343.748 151.79H338.748ZM335.256 161.063C332.836 163.237 329.882 164.43 326.262 164.6L326.497 169.595C331.178 169.375 335.255 167.785 338.597 164.783L335.256 161.063ZM324.287 168.466L339.228 191.317L343.413 188.581L328.472 165.73L324.287 168.466ZM341.321 187.449H333.63V192.449H341.321V187.449ZM335.734 188.598L320.719 165.233L316.513 167.937L331.527 191.301L335.734 188.598ZM320.604 165.07C320.362 164.752 320.329 164.6 320.33 164.605C320.332 164.614 320.338 164.656 320.331 164.719C320.324 164.782 320.307 164.834 320.292 164.866L315.768 162.737C314.825 164.74 315.541 166.675 316.627 168.1L320.604 165.07ZM320.292 164.866C320.29 164.87 320.273 164.905 320.23 164.951C320.186 164.999 320.136 165.036 320.092 165.06C320.008 165.106 320.036 165.057 320.3 165.057V160.057C319.441 160.057 318.53 160.215 317.688 160.676C316.816 161.154 316.173 161.876 315.768 162.737L320.292 164.866ZM320.3 165.057H323.157V160.057H320.3V165.057ZM323.157 165.057C326.97 165.057 330.316 163.978 332.994 161.665L329.726 157.881C328.107 159.28 325.985 160.057 323.157 160.057V165.057ZM332.973 161.684C335.848 159.255 337.156 155.827 337.156 151.79H332.156C332.156 154.687 331.266 156.581 329.747 157.863L332.973 161.684ZM337.155 151.83C337.215 148.14 335.928 144.993 333.184 142.695L329.975 146.529C331.43 147.748 332.194 149.386 332.156 151.75L337.155 151.83ZM333.184 142.695C330.636 140.562 327.651 139.476 324.329 139.476V144.476C326.475 144.476 328.324 145.147 329.975 146.529L333.184 142.695ZM377.576 189.949V192.449H380.076V189.949H377.576ZM371.204 189.949H368.704V192.449H371.204V189.949ZM370.764 142.415L368.466 143.4L368.48 143.431L368.494 143.463L370.764 142.415ZM369.299 141.17L368.757 143.61L368.766 143.612L368.775 143.614L369.299 141.17ZM367.029 140.584L366.067 142.892L366.178 142.938L366.294 142.973L367.029 140.584ZM377.576 159.554H375.076V166.746L379.537 161.104L377.576 159.554ZM395.007 137.508V135.008H393.797L393.046 135.957L395.007 137.508ZM400.5 138.387L398.193 139.348L398.208 139.385L398.225 139.421L400.5 138.387ZM400.061 139.998L398.293 138.23L398.198 138.326L398.113 138.431L400.061 139.998ZM382.922 161.312L380.974 159.745L379.756 161.26L380.924 162.814L382.922 161.312ZM404.456 189.949V192.449H409.463L406.454 188.447L404.456 189.949ZM396.838 189.949L394.83 191.437L395.579 192.449H396.838V189.949ZM377.576 163.948L379.584 162.46L375.076 156.374V163.948H377.576ZM377.576 187.449H371.204V192.449H377.576V187.449ZM373.704 189.949V145.564H368.704V189.949H373.704ZM373.704 145.564C373.704 144.049 373.57 142.528 373.034 141.367L368.494 143.463C368.493 143.459 368.511 143.499 368.537 143.6C368.563 143.699 368.592 143.838 368.618 144.024C368.67 144.401 368.704 144.907 368.704 145.564H373.704ZM373.062 141.43C372.474 140.057 371.358 139.054 369.823 138.725L368.775 143.614C368.769 143.613 368.739 143.606 368.695 143.585C368.65 143.563 368.603 143.533 368.559 143.496C368.465 143.416 368.448 143.356 368.466 143.4L373.062 141.43ZM369.842 138.729C369.007 138.544 368.317 138.365 367.764 138.195L366.294 142.973C367.01 143.194 367.834 143.405 368.757 143.61L369.842 138.729ZM367.99 138.276C368.095 138.32 368.314 138.449 368.483 138.718C368.645 138.973 368.65 139.178 368.65 139.192H363.65C363.65 139.891 363.802 140.669 364.256 141.388C364.719 142.121 365.376 142.604 366.067 142.892L367.99 138.276ZM368.65 139.192C368.65 139.18 368.652 139.286 368.58 139.452C368.501 139.633 368.372 139.796 368.22 139.913C368.082 140.019 367.985 140.04 368.005 140.035C368.028 140.029 368.133 140.008 368.347 140.008V135.008C367.366 135.008 366.171 135.184 365.178 135.945C364.06 136.803 363.65 138.041 363.65 139.192H368.65ZM368.347 140.008H375.159V135.008H368.347V140.008ZM375.159 140.008C375.367 140.008 375.45 140.034 375.447 140.033C375.443 140.032 375.416 140.023 375.374 139.998C375.332 139.973 375.281 139.937 375.231 139.889C375.181 139.84 375.14 139.788 375.11 139.739C375.08 139.691 375.066 139.655 375.06 139.639C375.051 139.612 375.076 139.669 375.076 139.852H380.076C380.076 138.665 379.765 137.321 378.712 136.299C377.673 135.291 376.331 135.008 375.159 135.008V140.008ZM375.076 139.852V159.554H380.076V139.852H375.076ZM379.537 161.104L396.968 139.058L393.046 135.957L375.615 158.003L379.537 161.104ZM395.007 140.008H399.036V135.008H395.007V140.008ZM399.036 140.008C399.076 140.008 398.906 140.016 398.665 139.871C398.399 139.712 398.251 139.489 398.193 139.348L402.808 137.425C402.505 136.699 401.992 136.036 401.237 135.584C400.508 135.146 399.728 135.008 399.036 135.008V140.008ZM398.225 139.421C398.18 139.324 398.136 139.186 398.121 139.016C398.105 138.844 398.123 138.679 398.162 138.535C398.237 138.258 398.362 138.162 398.293 138.23L401.829 141.766C402.298 141.297 402.764 140.664 402.986 139.85C403.222 138.984 403.124 138.117 402.776 137.352L398.225 139.421ZM398.113 138.431L380.974 159.745L384.871 162.878L402.009 141.565L398.113 138.431ZM380.924 162.814L402.457 191.452L406.454 188.447L384.921 159.809L380.924 162.814ZM404.456 187.449H396.838V192.449H404.456V187.449ZM398.847 188.461L379.584 162.46L375.567 165.436L394.83 191.437L398.847 188.461ZM375.076 163.948V189.949H380.076V163.948H375.076ZM437.634 189.949V192.449H440.134V189.949H437.634ZM431.262 189.949H428.762V192.449H431.262V189.949ZM430.823 142.342L428.525 143.327L428.538 143.358L428.553 143.389L430.823 142.342ZM429.358 141.097L428.816 143.537L428.825 143.539L428.834 143.541L429.358 141.097ZM427.087 140.438L426.126 142.745L426.158 142.758L426.19 142.771L427.087 140.438ZM437.634 187.449H431.262V192.449H437.634V187.449ZM433.762 189.949V145.491H428.762V189.949H433.762ZM433.762 145.491C433.762 143.976 433.628 142.455 433.093 141.294L428.553 143.389C428.551 143.386 428.57 143.426 428.596 143.527C428.622 143.626 428.65 143.765 428.676 143.951C428.729 144.327 428.762 144.834 428.762 145.491H433.762ZM433.121 141.357C432.532 139.984 431.416 138.981 429.882 138.652L428.834 143.541C428.827 143.54 428.797 143.532 428.754 143.511C428.709 143.49 428.662 143.46 428.618 143.423C428.524 143.343 428.506 143.283 428.525 143.327L433.121 141.357ZM429.9 138.656C429.106 138.48 428.474 138.292 427.985 138.104L426.19 142.771C426.97 143.071 427.852 143.323 428.816 143.537L429.9 138.656ZM428.049 138.13C428.118 138.159 428.33 138.27 428.508 138.538C428.687 138.806 428.708 139.044 428.708 139.119H423.708C423.708 139.829 423.877 140.604 424.348 141.312C424.82 142.019 425.471 142.472 426.126 142.745L428.049 138.13ZM428.708 139.119C428.708 139.107 428.711 139.213 428.639 139.379C428.56 139.56 428.431 139.723 428.279 139.84C428.14 139.946 428.043 139.967 428.063 139.962C428.087 139.956 428.191 139.935 428.406 139.935V134.935C427.424 134.935 426.23 135.111 425.237 135.872C424.118 136.729 423.708 137.968 423.708 139.119H428.708ZM428.406 139.935H435.217V134.935H428.406V139.935ZM435.217 139.935C435.426 139.935 435.508 139.961 435.506 139.96C435.502 139.959 435.475 139.949 435.433 139.925C435.39 139.9 435.34 139.864 435.29 139.815C435.239 139.766 435.199 139.714 435.168 139.666C435.139 139.617 435.124 139.581 435.119 139.566C435.11 139.539 435.134 139.595 435.134 139.778H440.134C440.134 138.592 439.824 137.247 438.77 136.226C437.731 135.218 436.389 134.935 435.217 134.935V139.935ZM435.134 139.778V189.949H440.134V139.778H435.134ZM479.382 137.435L481.634 136.348L480.952 134.935H479.382V137.435ZM498.792 177.645L496.54 178.731L501.292 177.645H498.792ZM498.792 137.435V134.935H496.292V137.435H498.792ZM504.797 137.435H507.297V134.935H504.797V137.435ZM498.499 189.949L496.256 191.055L496.944 192.449H498.499V189.949ZM477.332 147.029L479.574 145.924L474.832 147.029H477.332ZM477.332 189.949V192.449H479.832V189.949H477.332ZM471.692 189.949H469.192V192.449H471.692V189.949ZM471.399 142.415L468.963 142.977L468.99 143.093L469.027 143.206L471.399 142.415ZM468.103 140.438L466.985 142.674L467.078 142.72L467.175 142.759L468.103 140.438ZM477.131 138.521L496.54 178.731L501.043 176.558L481.634 136.348L477.131 138.521ZM501.292 177.645V137.435H496.292V177.645H501.292ZM498.792 139.935H504.797V134.935H498.792V139.935ZM502.297 137.435V186.653H507.297V137.435H502.297ZM502.297 186.653C502.297 187.367 502.121 187.442 502.206 187.357C502.291 187.273 502.215 187.449 501.501 187.449V192.449C502.985 192.449 504.558 192.077 505.741 190.893C506.925 189.709 507.297 188.137 507.297 186.653H502.297ZM501.501 187.449H498.499V192.449H501.501V187.449ZM500.741 188.843L479.574 145.924L475.089 148.135L496.256 191.055L500.741 188.843ZM474.832 147.029V189.949H479.832V147.029H474.832ZM477.332 187.449H471.692V192.449H477.332V187.449ZM474.192 189.949V145.491H469.192V189.949H474.192ZM474.192 145.491C474.192 144.025 474.107 142.633 473.771 141.624L469.027 143.206C469.027 143.205 469.028 143.209 469.031 143.217C469.033 143.225 469.036 143.236 469.04 143.252C469.047 143.283 469.057 143.327 469.067 143.384C469.089 143.501 469.111 143.658 469.13 143.861C469.169 144.269 469.192 144.808 469.192 145.491H474.192ZM473.835 141.853C473.436 140.124 472.13 139.141 470.753 138.71L469.262 143.483C469.387 143.522 469.333 143.53 469.222 143.424C469.165 143.37 469.106 143.298 469.056 143.211C469.006 143.123 468.978 143.041 468.963 142.977L473.835 141.853ZM470.753 138.71C470.004 138.476 469.436 138.278 469.032 138.116L467.175 142.759C467.746 142.987 468.448 143.229 469.262 143.483L470.753 138.71ZM469.221 138.201C469.387 138.284 469.595 138.452 469.739 138.711C469.803 138.827 469.837 138.93 469.854 139.005C469.871 139.077 469.871 139.119 469.871 139.119H464.871C464.871 139.752 464.993 140.463 465.368 141.139C465.756 141.837 466.331 142.346 466.985 142.674L469.221 138.201ZM469.871 139.119C469.871 139.127 469.869 139.253 469.785 139.434C469.695 139.628 469.556 139.785 469.416 139.886C469.29 139.976 469.217 139.984 469.271 139.971C469.327 139.958 469.465 139.935 469.714 139.935V134.935C468.709 134.935 467.505 135.102 466.497 135.826C465.338 136.659 464.871 137.907 464.871 139.119H469.871ZM469.714 139.935H479.382V134.935H469.714V139.935ZM567.712 189.949V192.449H570.212V189.949H567.712ZM561.34 189.949H558.84V192.449H561.34V189.949ZM560.901 142.415L558.603 143.4L558.617 143.431L558.631 143.463L560.901 142.415ZM559.436 141.17L558.894 143.61L558.903 143.612L558.912 143.614L559.436 141.17ZM557.166 140.584L556.204 142.892L556.315 142.938L556.43 142.973L557.166 140.584ZM567.712 159.554H565.212V166.746L569.673 161.104L567.712 159.554ZM585.144 137.508V135.008H583.934L583.183 135.957L585.144 137.508ZM590.637 138.387L588.33 139.348L588.345 139.385L588.361 139.421L590.637 138.387ZM590.198 139.998L588.43 138.23L588.334 138.326L588.25 138.431L590.198 139.998ZM573.059 161.312L571.111 159.745L569.892 161.26L571.061 162.814L573.059 161.312ZM594.592 189.949V192.449H599.6L596.59 188.447L594.592 189.949ZM586.975 189.949L584.966 191.437L585.716 192.449H586.975V189.949ZM567.712 163.948L569.721 162.46L565.212 156.374V163.948H567.712ZM567.712 187.449H561.34V192.449H567.712V187.449ZM563.84 189.949V145.564H558.84V189.949H563.84ZM563.84 145.564C563.84 144.049 563.707 142.528 563.171 141.367L558.631 143.463C558.629 143.459 558.648 143.499 558.674 143.6C558.7 143.699 558.728 143.838 558.754 144.024C558.807 144.401 558.84 144.907 558.84 145.564H563.84ZM563.199 141.43C562.61 140.057 561.494 139.054 559.96 138.725L558.912 143.614C558.905 143.613 558.876 143.606 558.832 143.585C558.787 143.563 558.74 143.533 558.696 143.496C558.602 143.416 558.584 143.356 558.603 143.4L563.199 141.43ZM559.978 138.729C559.143 138.544 558.454 138.365 557.901 138.195L556.43 142.973C557.146 143.194 557.971 143.405 558.894 143.61L559.978 138.729ZM558.127 138.276C558.232 138.32 558.45 138.449 558.62 138.718C558.781 138.973 558.787 139.178 558.787 139.192H553.787C553.787 139.891 553.938 140.669 554.393 141.388C554.855 142.121 555.513 142.604 556.204 142.892L558.127 138.276ZM558.787 139.192C558.787 139.18 558.789 139.286 558.717 139.452C558.638 139.633 558.509 139.796 558.357 139.913C558.218 140.019 558.121 140.04 558.142 140.035C558.165 140.029 558.269 140.008 558.484 140.008V135.008C557.502 135.008 556.308 135.184 555.315 135.945C554.196 136.803 553.787 138.041 553.787 139.192H558.787ZM558.484 140.008H565.295V135.008H558.484V140.008ZM565.295 140.008C565.504 140.008 565.587 140.034 565.584 140.033C565.58 140.032 565.553 140.023 565.511 139.998C565.468 139.973 565.418 139.937 565.368 139.889C565.317 139.84 565.277 139.788 565.247 139.739C565.217 139.691 565.203 139.655 565.197 139.639C565.188 139.612 565.212 139.669 565.212 139.852H570.212C570.212 138.665 569.902 137.321 568.849 136.299C567.809 135.291 566.467 135.008 565.295 135.008V140.008ZM565.212 139.852V159.554H570.212V139.852H565.212ZM569.673 161.104L587.105 139.058L583.183 135.957L565.751 158.003L569.673 161.104ZM585.144 140.008H589.172V135.008H585.144V140.008ZM589.172 140.008C589.213 140.008 589.042 140.016 588.802 139.871C588.536 139.712 588.388 139.489 588.33 139.348L592.945 137.425C592.642 136.699 592.129 136.036 591.374 135.584C590.645 135.146 589.864 135.008 589.172 135.008V140.008ZM588.361 139.421C588.317 139.324 588.273 139.186 588.257 139.016C588.242 138.844 588.259 138.679 588.299 138.535C588.374 138.258 588.498 138.162 588.43 138.23L591.966 141.766C592.434 141.297 592.9 140.664 593.122 139.85C593.359 138.984 593.261 138.117 592.913 137.352L588.361 139.421ZM588.25 138.431L571.111 159.745L575.007 162.878L592.146 141.565L588.25 138.431ZM571.061 162.814L592.594 191.452L596.59 188.447L575.057 159.809L571.061 162.814ZM594.592 187.449H586.975V192.449H594.592V187.449ZM588.984 188.461L569.721 162.46L565.704 165.436L584.966 191.437L588.984 188.461ZM565.212 163.948V189.949H570.212V163.948H565.212ZM627.771 189.949V192.449H630.271V189.949H627.771ZM621.399 189.949H618.899V192.449H621.399V189.949ZM620.959 142.342L618.662 143.327L618.675 143.358L618.69 143.389L620.959 142.342ZM619.495 141.097L618.952 143.537L618.962 143.539L618.971 143.541L619.495 141.097ZM617.224 140.438L616.263 142.745L616.294 142.758L616.327 142.771L617.224 140.438ZM627.771 187.449H621.399V192.449H627.771V187.449ZM623.899 189.949V145.491H618.899V189.949H623.899ZM623.899 145.491C623.899 143.976 623.765 142.455 623.229 141.294L618.69 143.389C618.688 143.386 618.706 143.426 618.733 143.527C618.759 143.626 618.787 143.765 618.813 143.951C618.866 144.327 618.899 144.834 618.899 145.491H623.899ZM623.257 141.357C622.669 139.984 621.553 138.981 620.018 138.652L618.971 143.541C618.964 143.54 618.934 143.532 618.89 143.511C618.846 143.49 618.798 143.46 618.754 143.423C618.66 143.343 618.643 143.283 618.662 143.327L623.257 141.357ZM620.037 138.656C619.243 138.48 618.611 138.292 618.122 138.104L616.327 142.771C617.107 143.071 617.989 143.323 618.952 143.537L620.037 138.656ZM618.186 138.13C618.255 138.159 618.467 138.27 618.645 138.538C618.824 138.806 618.845 139.044 618.845 139.119H613.845C613.845 139.829 614.013 140.604 614.485 141.312C614.956 142.019 615.607 142.472 616.263 142.745L618.186 138.13ZM618.845 139.119C618.845 139.107 618.847 139.213 618.775 139.379C618.697 139.56 618.568 139.723 618.416 139.84C618.277 139.946 618.18 139.967 618.2 139.962C618.224 139.956 618.328 139.935 618.542 139.935V134.935C617.561 134.935 616.366 135.111 615.373 135.872C614.255 136.729 613.845 137.968 613.845 139.119H618.845ZM618.542 139.935H625.354V134.935H618.542V139.935ZM625.354 139.935C625.562 139.935 625.645 139.961 625.643 139.96C625.639 139.959 625.611 139.949 625.57 139.925C625.527 139.9 625.477 139.864 625.426 139.815C625.376 139.766 625.335 139.714 625.305 139.666C625.275 139.617 625.261 139.581 625.256 139.566C625.247 139.539 625.271 139.595 625.271 139.778H630.271C630.271 138.592 629.961 137.247 628.907 136.226C627.868 135.218 626.526 134.935 625.354 134.935V139.935ZM625.271 139.778V189.949H630.271V139.778H625.271ZM669.519 137.435L671.77 136.348L671.088 134.935H669.519V137.435ZM688.928 177.645L686.677 178.731L691.428 177.645H688.928ZM688.928 137.435V134.935H686.428V137.435H688.928ZM694.934 137.435H697.434V134.935H694.934V137.435ZM688.635 189.949L686.393 191.055L687.081 192.449H688.635V189.949ZM667.468 147.029L669.71 145.924L664.968 147.029H667.468ZM667.468 189.949V192.449H669.968V189.949H667.468ZM661.829 189.949H659.329V192.449H661.829V189.949ZM661.536 142.415L659.1 142.977L659.126 143.093L659.164 143.206L661.536 142.415ZM658.24 140.438L657.122 142.674L657.215 142.72L657.311 142.759L658.24 140.438ZM667.268 138.521L686.677 178.731L691.18 176.558L671.77 136.348L667.268 138.521ZM691.428 177.645V137.435H686.428V177.645H691.428ZM688.928 139.935H694.934V134.935H688.928V139.935ZM692.434 137.435V186.653H697.434V137.435H692.434ZM692.434 186.653C692.434 187.367 692.257 187.442 692.342 187.357C692.427 187.273 692.351 187.449 691.638 187.449V192.449C693.122 192.449 694.694 192.077 695.878 190.893C697.061 189.709 697.434 188.137 697.434 186.653H692.434ZM691.638 187.449H688.635V192.449H691.638V187.449ZM690.877 188.843L669.71 145.924L665.226 148.135L686.393 191.055L690.877 188.843ZM664.968 147.029V189.949H669.968V147.029H664.968ZM667.468 187.449H661.829V192.449H667.468V187.449ZM664.329 189.949V145.491H659.329V189.949H664.329ZM664.329 145.491C664.329 144.025 664.244 142.633 663.907 141.624L659.164 143.206C659.164 143.205 659.165 143.209 659.167 143.217C659.17 143.225 659.173 143.236 659.176 143.252C659.184 143.283 659.194 143.327 659.204 143.384C659.225 143.501 659.247 143.658 659.267 143.861C659.306 144.269 659.329 144.808 659.329 145.491H664.329ZM663.972 141.853C663.573 140.124 662.266 139.141 660.89 138.71L659.398 143.483C659.524 143.522 659.47 143.53 659.359 143.424C659.301 143.37 659.242 143.298 659.193 143.211C659.143 143.123 659.114 143.041 659.1 142.977L663.972 141.853ZM660.89 138.71C660.14 138.476 659.573 138.278 659.168 138.116L657.311 142.759C657.883 142.987 658.585 143.229 659.398 143.483L660.89 138.71ZM659.358 138.201C659.524 138.284 659.732 138.452 659.876 138.711C659.94 138.827 659.974 138.93 659.991 139.005C660.007 139.077 660.007 139.119 660.007 139.119H655.007C655.007 139.752 655.129 140.463 655.505 141.139C655.893 141.837 656.468 142.346 657.122 142.674L659.358 138.201ZM660.007 139.119C660.007 139.127 660.006 139.253 659.922 139.434C659.832 139.628 659.693 139.785 659.552 139.886C659.427 139.976 659.354 139.984 659.408 139.971C659.464 139.958 659.602 139.935 659.851 139.935V134.935C658.845 134.935 657.641 135.102 656.634 135.826C655.474 136.659 655.007 137.907 655.007 139.119H660.007ZM659.851 139.935H669.519V134.935H659.851V139.935ZM762.903 186.36L764.31 188.427L765.403 187.682V186.36H762.903ZM749.866 190.315L750.004 192.812L750.015 192.811L750.026 192.81L749.866 190.315ZM736.536 187.532L735.227 189.662L735.242 189.672L735.258 189.681L736.536 187.532ZM728.04 178.377L725.842 179.569L725.85 179.584L725.859 179.6L728.04 178.377ZM724.67 163.143L722.17 163.158L722.17 163.163L724.67 163.143ZM730.31 143.88L732.281 145.417L732.289 145.408L730.31 143.88ZM763.049 148.567V151.067H765.549V148.567H763.049ZM756.238 148.567L753.741 148.692L753.86 151.067H756.238V148.567ZM753.235 143.587L751.718 145.574L751.747 145.596L751.777 145.618L753.235 143.587ZM735.876 146.736L737.76 148.381L737.765 148.374L737.771 148.368L735.876 146.736ZM736.023 178.963L734.061 180.513L734.072 180.526L734.083 180.539L736.023 178.963ZM748.328 185.115L748.452 182.618L748.439 182.618L748.425 182.617L748.328 185.115ZM751.99 185.042L752.156 187.536L752.197 187.534L752.239 187.53L751.99 185.042ZM756.531 183.943L757.409 186.284L759.031 185.676V183.943H756.531ZM755.066 167.464L753.504 169.416L753.535 169.44L753.566 169.464L755.066 167.464ZM760.403 164.9V186.36H765.403V164.9H760.403ZM761.495 184.294C758.593 186.271 754.715 187.499 749.706 187.821L750.026 192.81C755.661 192.448 760.474 191.04 764.31 188.427L761.495 184.294ZM749.727 187.819C744.822 188.092 740.902 187.22 737.813 185.383L735.258 189.681C739.396 192.142 744.362 193.125 750.004 192.812L749.727 187.819ZM737.844 185.402C734.839 183.556 732.288 180.84 730.22 177.154L725.859 179.6C728.283 183.921 731.396 187.309 735.227 189.662L737.844 185.402ZM730.237 177.185C728.288 173.59 727.217 168.944 727.17 163.123L722.17 163.163C722.222 169.548 723.396 175.058 725.842 179.569L730.237 177.185ZM727.17 163.127C727.124 155.568 728.907 149.744 732.281 145.417L728.339 142.342C724.096 147.782 722.119 154.799 722.17 163.158L727.17 163.127ZM732.289 145.408C735.552 141.183 740.235 138.982 746.716 138.982V133.982C738.94 133.982 732.686 136.713 728.331 142.352L732.289 145.408ZM746.716 138.982C750.772 138.982 754.067 140.083 756.745 142.185L759.832 138.251C756.163 135.372 751.743 133.982 746.716 133.982V138.982ZM756.745 142.185C759.519 144.361 760.549 146.485 760.549 148.567H765.549C765.549 144.497 763.406 141.055 759.832 138.251L756.745 142.185ZM763.049 146.067H756.238V151.067H763.049V146.067ZM758.735 148.443C758.591 145.575 757.079 143.269 754.693 141.556L751.777 145.618C753.199 146.639 753.689 147.653 753.741 148.692L758.735 148.443ZM754.752 141.6C752.413 139.815 749.643 138.963 746.57 138.963V143.963C748.673 143.963 750.346 144.527 751.718 145.574L754.752 141.6ZM746.57 138.963C741.64 138.963 737.415 141.119 733.982 145.105L737.771 148.368C740.393 145.323 743.296 143.963 746.57 143.963V138.963ZM733.993 145.092C730.421 149.183 728.835 154.946 728.835 161.971H733.835C733.835 155.617 735.277 151.224 737.76 148.381L733.993 145.092ZM728.835 161.971C728.835 169.655 730.459 175.953 734.061 180.513L737.985 177.413C735.337 174.063 733.835 169.033 733.835 161.971H728.835ZM734.083 180.539C737.71 185.004 742.483 187.39 748.231 187.613L748.425 182.617C744.114 182.45 740.684 180.735 737.963 177.386L734.083 180.539ZM748.203 187.612C749.311 187.668 750.637 187.638 752.156 187.536L751.823 182.548C750.413 182.642 749.297 182.661 748.452 182.618L748.203 187.612ZM752.239 187.53C753.945 187.359 755.67 186.936 757.409 186.284L755.653 181.603C754.266 182.122 752.964 182.432 751.741 182.554L752.239 187.53ZM759.031 183.943V172.591H754.031V183.943H759.031ZM759.031 172.591C759.031 171.121 758.9 169.769 758.568 168.608C758.24 167.459 757.65 166.277 756.566 165.464L753.566 169.464C753.459 169.383 753.601 169.422 753.761 169.982C753.917 170.53 754.031 171.375 754.031 172.591H759.031ZM756.628 165.512C755.706 164.774 754.553 164.371 753.408 164.136C752.234 163.895 750.869 163.792 749.353 163.792V168.792C750.669 168.792 751.672 168.884 752.403 169.034C753.162 169.19 753.449 169.372 753.504 169.416L756.628 165.512ZM749.353 163.792C749.353 163.792 749.36 163.792 749.372 163.793C749.385 163.794 749.404 163.796 749.428 163.8C749.477 163.809 749.548 163.827 749.634 163.862C749.821 163.939 750.004 164.071 750.144 164.245C750.399 164.56 750.315 164.751 750.315 164.388H745.315C745.315 165.294 745.487 166.437 746.255 167.387C747.104 168.439 748.297 168.792 749.353 168.792V163.792ZM750.315 164.388C750.315 164.024 750.399 164.215 750.144 164.53C750.004 164.704 749.821 164.836 749.634 164.913C749.548 164.949 749.477 164.966 749.428 164.975C749.404 164.979 749.385 164.981 749.372 164.982C749.36 164.983 749.353 164.983 749.353 164.983V159.983C748.297 159.983 747.104 160.337 746.255 161.389C745.487 162.339 745.315 163.482 745.315 164.388H750.315ZM749.353 164.983H760.559V159.983H749.353V164.983ZM760.559 164.983C760.742 164.983 760.798 165.008 760.772 164.999C760.756 164.993 760.72 164.979 760.672 164.949C760.623 164.919 760.571 164.878 760.522 164.828C760.473 164.778 760.437 164.727 760.412 164.685C760.388 164.643 760.379 164.616 760.378 164.612C760.377 164.609 760.403 164.692 760.403 164.9H765.403C765.403 163.728 765.119 162.387 764.112 161.347C763.09 160.294 761.746 159.983 760.559 159.983V164.983Z" fill="#730909"/>
<g filter="url(#filter1_d)">
<path d="M393.041 110.469V77.6202H396.246V104.059H394.643" stroke="#730909" stroke-width="1.75"/>
<path d="M439.51 69.6084V104.059H436.305V77.6203H437.907" stroke="#730909" stroke-width="1.75"/>
<path d="M404.259 80.825H400.253V77.6202H406.662V104.059H409.867V80.825H415.475V77.6202H409.066" stroke="#730909" stroke-width="1.75"/>
<path d="M443.596 104.059L464.427 82.4272V99.2522H467.632V77.6201H464.427L443.596 99.2522V77.6201H446.801V92.0415" stroke="#730909" stroke-width="1.75" stroke-linecap="square"/>
<path d="M389.036 104.861L368.205 82.4274V100.053H365V77.6202H368.205L389.036 100.053V77.6202H385.831V92.8428" stroke="#730909" stroke-width="1.75" stroke-linecap="square"/>
<path d="M432.3 93.6439V104.861H429.096V93.6439H422.686V111.27H419.481V77.6202H422.686V90.4392H432.3V69.6083H429.096V88.0356" stroke="#730909" stroke-width="1.75"/>
<path d="M495.593 88.0356V99.2523H498.798V88.0356H505.207V105.662H508.412V72.0119H505.207V84.8309H495.593V64H498.798V82.4273" stroke="#730909" stroke-width="1.75"/>
<path d="M478.768 77.6202H491.587V80.825H479.569V99.2523H491.587V96.0476H482.774V83.2286" stroke="#730909" stroke-width="1.75"/>
<path d="M512.417 77.6202H527.64V80.825H512.417V99.2523H527.64V83.2286H524.435V96.0476H515.622V83.2286" stroke="#730909" stroke-width="1.75"/>
<path d="M550.074 102.457L542.062 91.2404L534.851 99.2523H531.646V77.6202H534.851V93.6439L542.062 85.6321L550.875 97.6499V64H547.67V88.8368" stroke="#730909" stroke-width="1.75"/>
<path d="M554.88 99.2522H566.898V96.0474H554.88V77.6201H560.488L566.898 81.6261V93.6439H563.693V83.2284L559.687 80.8249H558.085V93.6439" stroke="#730909" stroke-width="1.75"/>
<path d="M570.904 77.6202V103.258H574.109V91.2404H578.916V88.0357H574.109V77.6202H580.519L584.524 81.6262V99.2523H581.32V83.2286L578.916 80.825H576.513" stroke="#730909" stroke-width="1.75"/>
<path d="M588.53 77.6202V99.2523H591.735V91.2404L598.946 99.2523H602.952L593.337 88.8369H598.946L602.952 84.8309V80.0238L599.747 77.6202H591.735V85.6321H597.343L599.747 84.0297V81.6262L597.343 80.825H594.139" stroke="#730909" stroke-width="1.75"/>
<path d="M616.572 90.4392V99.2523H613.367V90.4392L604.554 77.6202H608.56L615.77 88.0356H616.572L634.999 64H630.993L615.77 84.0297" stroke="#730909" stroke-width="1.75"/>
</g>
<path d="M-1 -8H186L-1 70V-8Z" fill="white"/>
<path d="M0 -8H329L0 134V-8Z" fill="white"/>
<g filter="url(#filter2_d)">
<path d="M-9 -8H294L-9 121V-8Z" fill="#730909"/>
</g>
<path d="M1001 278H704L1001 169V278Z" fill="white"/>
<g filter="url(#filter3_d)">
<path d="M1012 278H739L1012 179V278Z" fill="#730909"/>
</g>
</g>
<defs>
<filter id="filter0_d" x="352" y="56" width="304" height="71" filterUnits="userSpaceOnUse" color-interpolation-filters="sRGB">
<feFlood flood-opacity="0" result="BackgroundImageFix"/>
<feColorMatrix in="SourceAlpha" type="matrix" values="0 0 0 0 0 0 0 0 0 0 0 0 0 0 0 0 0 0 127 0" result="hardAlpha"/>
<feOffset dx="4" dy="4"/>
<feGaussianBlur stdDeviation="2"/>
<feComposite in2="hardAlpha" operator="out"/>
<feColorMatrix type="matrix" values="0 0 0 0 0 0 0 0 0 0 0 0 0 0 0 0 0 0 0.44 0"/>
<feBlend mode="normal" in2="BackgroundImageFix" result="effect1_dropShadow"/>
<feBlend mode="normal" in="SourceGraphic" in2="effect1_dropShadow" result="shape"/>
</filter>
<filter id="filter1_d" x="364.125" y="63.125" width="280.648" height="57.02" filterUnits="userSpaceOnUse" color-interpolation-filters="sRGB">
<feFlood flood-opacity="0" result="BackgroundImageFix"/>
<feColorMatrix in="SourceAlpha" type="matrix" values="0 0 0 0 0 0 0 0 0 0 0 0 0 0 0 0 0 0 127 0" result="hardAlpha"/>
<feOffset dx="4" dy="4"/>
<feGaussianBlur stdDeviation="2"/>
<feComposite in2="hardAlpha" operator="out"/>
<feColorMatrix type="matrix" values="0 0 0 0 0 0 0 0 0 0 0 0 0 0 0 0 0 0 0.35 0"/>
<feBlend mode="normal" in2="BackgroundImageFix" result="effect1_dropShadow"/>
<feBlend mode="normal" in="SourceGraphic" in2="effect1_dropShadow" result="shape"/>
</filter>
<filter id="filter2_d" x="-9" y="-8" width="311" height="137" filterUnits="userSpaceOnUse" color-interpolation-filters="sRGB">
<feFlood flood-opacity="0" result="BackgroundImageFix"/>
<feColorMatrix in="SourceAlpha" type="matrix" values="0 0 0 0 0 0 0 0 0 0 0 0 0 0 0 0 0 0 127 0" result="hardAlpha"/>
<feOffset dx="4" dy="4"/>
<feGaussianBlur stdDeviation="2"/>
<feComposite in2="hardAlpha" operator="out"/>
<feColorMatrix type="matrix" values="0 0 0 0 0 0 0 0 0 0 0 0 0 0 0 0 0 0 0.25 0"/>
<feBlend mode="normal" in2="BackgroundImageFix" result="effect1_dropShadow"/>
<feBlend mode="normal" in="SourceGraphic" in2="effect1_dropShadow" result="shape"/>
</filter>
<filter id="filter3_d" x="731" y="171" width="281" height="107" filterUnits="userSpaceOnUse" color-interpolation-filters="sRGB">
<feFlood flood-opacity="0" result="BackgroundImageFix"/>
<feColorMatrix in="SourceAlpha" type="matrix" values="0 0 0 0 0 0 0 0 0 0 0 0 0 0 0 0 0 0 127 0" result="hardAlpha"/>
<feOffset dx="-4" dy="-4"/>
<feGaussianBlur stdDeviation="2"/>
<feComposite in2="hardAlpha" operator="out"/>
<feColorMatrix type="matrix" values="0 0 0 0 0 0 0 0 0 0 0 0 0 0 0 0 0 0 0.25 0"/>
<feBlend mode="normal" in2="BackgroundImageFix" result="effect1_dropShadow"/>
<feBlend mode="normal" in="SourceGraphic" in2="effect1_dropShadow" result="shape"/>
</filter>
<clipPath id="clip0">
<rect width="1000" height="277.597" fill="white"/>
</clipPath>
</defs>
</svg>
